<svg width="117" height="115" viewBox="0 0 117 115" fill="none" xmlns="http://www.w3.org/2000/svg">
<path fill-rule="evenodd" clip-rule="evenodd" d="M105.694 72.6791V36.1336C105.694 34.2036 104.606 32.4392 102.885 31.5761L56.5873 8.36338C54.8802 7.50743 52.8717 7.50245 51.1604 8.34991L44.378 11.7085L52.0084 19.2959L53.8491 18.3843L89.3454 36.1815L75.9539 43.1067L83.5046 50.6149L95.5309 44.4569V62.5734L105.694 72.6791ZM89.9081 74.5772L95.5309 80.3228C95.5309 80.3228 103.921 88.7296 103.884 88.768C103.922 88.7305 103.847 88.8063 103.884 88.768L115.893 100.81L108.706 108.016L94.5406 93.811L55.6494 113.545C54.2078 114.277 52.5054 114.277 51.0634 113.547L3.34785 89.3712C1.29462 88.3308 0 86.2204 0 83.9137V37.1527C0 35.2507 1.05644 33.507 2.73983 32.6305L23.0059 22.0786L9.11047 8.14473L16.2564 0.979004L89.9081 74.5772ZM16.5107 36.9433L30.5766 29.6196L54.9178 53.5632L53.2722 54.4048L16.5107 36.9433ZM62.5036 61.1235L87.0396 86.1958L58.4364 100.71V63.2034L62.5036 61.1235ZM48.2736 63.3068V100.715L10.1629 81.4062V45.2046L48.2736 63.3068Z" fill="#667080" fill-opacity="0.2"/>
</svg>
