<?xml version="1.0" encoding="UTF-8" standalone="no"?>
<svg
   xmlns:dc="http://purl.org/dc/elements/1.1/"
   xmlns:cc="http://creativecommons.org/ns#"
   xmlns:rdf="http://www.w3.org/1999/02/22-rdf-syntax-ns#"
   xmlns:svg="http://www.w3.org/2000/svg"
   xmlns="http://www.w3.org/2000/svg"
   version="1.1"
   id="svg18055"
   viewBox="0 0 100 30"
   height="30"
   width="100">
  <defs
     id="defs18057" />
  <metadata
     id="metadata18060">
    <rdf:RDF>
      <cc:Work
         rdf:about="">
        <dc:format>image/svg+xml</dc:format>
        <dc:type
           rdf:resource="http://purl.org/dc/dcmitype/StillImage" />
        <dc:title></dc:title>
      </cc:Work>
    </rdf:RDF>
  </metadata>
  <g
     transform="translate(0,-1022.3622)"
     id="layer1">
    <g
       style="fill:#7b207f;fill-opacity:1;stroke:none"
       id="g6781-9-1-3-2-2-0-6-3-0-9-5-5"
       transform="matrix(0.18108991,0,0,0.18108991,396.65302,833.14517)">
      <g
         style="fill:#7b207f;fill-opacity:1"
         transform="translate(-4.9999023,0)"
         id="g14537-0-2-7-2-9">
        <path
           id="path4850-3-1-8-7-6-0-9-5-8-6-1-0-2-6-9-3"
           transform="matrix(0.24924691,0,0,0.24924691,-2828.5488,1140.8227)"
           d="m 3889.834,-265.625 -78.502,0.002 0,48.32227 c -36.7445,-30.18112 -83.7668,-48.30877 -135.0273,-48.32031 l -186.4609,-0.002 0,79.27149 186.4609,0 c 58.6154,0.0602 110.3603,38.2835 127.6504,94.291013 l -239.793,0 0,79.167969 239.8477,0 c -17.3912,55.920852 -69.1419,94.023385 -127.7051,94.02539 l -186.4609,0 0,79.279298 186.4609,0 0,-0.10156 c 51.2598,-0.0175 98.283,-18.14295 135.0273,-48.32227 l 0,47.9043 78.502,0 0,-346.2461 107.959,0 c 73.8669,-0.002 133.7485,59.87919 133.7461,133.746098 0,73.863702 -59.8824,133.742241 -133.7461,133.740234 l -60.8711,0 0,79.214848 60.8711,0 0,-0.041 c 117.6002,-0.0401 212.9176,-95.3689 212.914,-212.968749 -4e-4,-117.597041 -95.317,-212.936011 -212.914,-212.962891 l -107.959,0 z m -801.1992,0.002 0,79.27149 186.4609,0 c 58.6158,0.0602 110.3603,38.2835 127.6504,94.291013 l -239.793,0 0,79.167969 239.8477,0 c -17.3908,55.920853 -69.1419,94.023384 -127.7051,94.02539 l -186.4609,0 0,79.175778 186.4609,0 c 117.6003,-0.0401 212.9177,-95.368895 212.9141,-212.968746 -4e-4,-117.597044 -95.3171,-212.936414 -212.9141,-212.962894 l -186.4609,0 z m -444.3711,0.006 0,79.16797 241.7988,0 -258.0625,346.4002 413.7461,0.35742 -0.3574,-79.525387 -252.3301,0 259.1367,-346.400393 -403.9316,0 z m 2025.1074,0.35157 0,425.57421 79.166,0 0,-425.57421 -79.166,0 z m -421.4199,0.008 -0.7168,425.5664 79.5254,0 0,-173.021481 216.3652,0 0,173.021481 79.168,0 0,-425.5664 -79.168,0 0,173.378904 -216.7227,0 0,-173.378904 -78.4511,0 z"
           style="fill:#7b207f;fill-opacity:1;stroke:none;stroke-width:0.94;stroke-miterlimit:4;stroke-dasharray:none;stroke-opacity:1" />
      </g>
    </g>
  </g>
</svg>
