<?xml version="1.0" standalone="no"?>
<!DOCTYPE svg PUBLIC "-//W3C//DTD SVG 20010904//EN"
 "http://www.w3.org/TR/2001/REC-SVG-20010904/DTD/svg10.dtd">
<svg version="1.0" xmlns="http://www.w3.org/2000/svg"
 width="512.000000pt" height="512.000000pt" viewBox="0 0 512.000000 512.000000"
 preserveAspectRatio="xMidYMid meet">
<metadata>
Created by potrace 1.11, written by Peter Selinger 2001-2013
</metadata>
<g transform="translate(0.000000,512.000000) scale(0.100000,-0.100000)"
fill="#000000" stroke="none">
<path d="M2380 4949 c-98 -16 -118 -20 -194 -40 -155 -39 -393 -157 -492 -244
-7 -5 -38 -32 -70 -60 -201 -169 -372 -447 -439 -713 -39 -155 -43 -237 -44
-924 l-1 -668 161 -2 c160 -3 160 -3 142 -23 -72 -78 -177 -276 -228 -428 -68
-206 -68 -206 -72 -985 l-4 -702 265 0 266 0 1 658 c0 361 2 666 4 677 2 11 7
40 10 65 24 161 130 359 257 481 85 82 242 177 334 203 l21 6 1 -787 c0 -434
1 -793 1 -798 1 -12 498 -15 516 -3 7 4 10 276 10 797 0 787 0 791 20 785 11
-3 52 -20 90 -37 269 -121 463 -385 509 -692 2 -16 5 -328 5 -692 l1 -663 265
0 265 0 -2 673 c-1 493 -5 696 -14 762 -15 99 -52 255 -66 269 -4 6 -8 16 -8
23 0 30 -100 223 -163 316 l-66 97 157 0 157 0 0 257 0 258 -24 5 c-14 3 -533
5 -1154 4 l-1128 0 3 435 4 436 27 88 c75 243 225 430 439 545 138 74 257 101
433 98 149 -3 165 -6 259 -37 288 -97 493 -310 583 -606 25 -84 27 -100 31
-363 2 -151 8 -277 12 -280 6 -4 484 -5 512 -1 4 1 5 126 4 279 -3 310 -14
395 -71 568 -130 391 -427 710 -810 869 -75 31 -221 73 -315 90 -53 10 -349
13 -400 4z"/>
<path d="M2072 3806 c-55 -19 -100 -62 -113 -109 -7 -26 -12 -115 -11 -233 0
-173 2 -195 21 -232 60 -119 224 -127 301 -15 24 35 25 42 28 237 2 128 -1
215 -8 239 -26 90 -129 143 -218 113z"/>
<path d="M2953 3806 c-54 -14 -109 -67 -119 -115 -11 -50 -12 -389 -2 -428 33
-126 205 -167 295 -71 46 49 51 80 49 298 -1 200 -2 206 -26 242 -44 65 -121
94 -197 74z"/>
</g>
</svg>
